<svg id="Layer_1" data-name="Layer 1" xmlns="http://www.w3.org/2000/svg" viewBox="0 0 366 179.31"><defs><style>.cls-1{fill:#fff;stroke:#fff;stroke-miterlimit:10;}</style></defs><path class="cls-1" d="M217.4,161.2h.2c1.5,1.8,3.3,3.3,4.9,5l11.1,11.1v.2c-5.4,5.4-10.7,10.8-16.1,16.1l-16.2-16.2a7.41,7.41,0,0,1,1.2-1.3C207.5,171.2,212.5,166.2,217.4,161.2Z" transform="translate(-67 -160.09)"/><path class="cls-1" d="M217.4,161.2h.2c1.5,1.8,3.3,3.3,4.9,5h0l11.1,11.1h0v.2h0c-5.4,5.4-10.7,10.8-16.1,16.1h0l-16.2-16.2h0a7.41,7.41,0,0,1,1.2-1.3h0c5-4.9,10-9.9,14.9-14.9h0c-4.9,5-9.9,9.9-14.9,14.9h0a7.41,7.41,0,0,0-1.2,1.3h0l16.2,16.2h0c5.4-5.4,10.7-10.8,16.1-16.1h0v-.2h0l-11.1-11.1h0c-1.6-1.7-3.4-3.2-4.9-5h-.2Z" transform="translate(-67 -160.09)"/><path class="cls-1" d="M249.8,161.2h.2c.2.2.3.4.5.6,5.2,5.1,10.3,10.4,15.6,15.5-.1.3-.4.5-.6.7-5.2,5.2-10.4,10.4-15.6,15.5-5.4-5.4-10.8-10.8-16.2-16.1C239,172,244.5,166.7,249.8,161.2Z" transform="translate(-67 -160.09)"/><path class="cls-1" d="M249.8,161.2h.2c.2.2.3.4.5.6h0c5.2,5.1,10.3,10.4,15.6,15.5h0c-.1.3-.4.5-.6.7-5.2,5.2-10.4,10.4-15.6,15.5h0c-5.4-5.4-10.8-10.8-16.2-16.1h0c5.3-5.4,10.8-10.7,16.1-16.2h0c-5.3,5.5-10.9,10.8-16.1,16.3h0c5.5,5.3,10.8,10.8,16.2,16.1h0c5.2-5.2,10.4-10.4,15.6-15.5.2-.2.5-.4.6-.7h0c-5.2-5.1-10.4-10.3-15.6-15.5h0c-.2-.2-.3-.4-.5-.6h0l-.2-.1Z" transform="translate(-67 -160.09)"/><path class="cls-1" d="M282.2,161.2h.2c1,1.2,2.2,2.2,3.3,3.4l12.2,12.2a1.7,1.7,0,0,1,.6.8c-5.5,5.3-10.7,10.8-16.2,16.1l-15.4-15.4c-.3-.3-.6-.5-.7-.8l8.1-8.1C276.9,166.6,279.6,163.9,282.2,161.2Z" transform="translate(-67 -160.09)"/><path class="cls-1" d="M282.2,161.2h.2c1,1.2,2.2,2.2,3.3,3.4h0l12.2,12.2h0c.2.2.5.4.6.7h0c-5.5,5.3-10.7,10.8-16.2,16.1h0l-15.4-15.4h0c-.3-.3-.6-.5-.7-.8h0l8.1-8.1h0c2.6-2.7,5.3-5.3,7.9-8.1h0c-2.6,2.7-5.3,5.3-8,8h0l-8.1,8.1h0c.1.4.5.6.7.8h0l15.4,15.4h0c5.5-5.3,10.8-10.8,16.2-16.1h0c-.1-.3-.4-.5-.6-.8h0l-12.2-12.2h0c-1.1-1.1-2.3-2.2-3.3-3.4h0l-.1.2Z" transform="translate(-67 -160.09)"/><path class="cls-1" d="M233.9,209.6l15.9-15.9.2.1c5.3,5.4,10.7,10.7,16,16-.2.4-.6.6-.8,1-3.9,3.8-7.7,7.7-11.6,11.6-1.3,1.2-2.5,2.6-3.7,3.7-1.8-1.7-3.5-3.5-5.3-5.2-3.6-3.6-7.2-7.2-10.9-10.8C233.8,209.8,233.9,209.7,233.9,209.6Z" transform="translate(-67 -160.09)"/><path class="cls-1" d="M233.9,209.6h0l15.9-15.9h0l.2.1h0c5.3,5.4,10.7,10.7,16,16h0a7,7,0,0,1-.8,1h0c-3.9,3.8-7.7,7.7-11.6,11.6-1.3,1.2-2.5,2.6-3.7,3.7h0c-1.8-1.7-3.5-3.5-5.3-5.2-3.6-3.6-7.2-7.2-10.9-10.8h0c.1-.3.2-.4.2-.5h0c-.1.1-.1.2-.2.3h0c3.6,3.6,7.2,7.2,10.9,10.8,1.8,1.7,3.5,3.6,5.3,5.2h0c1.3-1.1,2.5-2.5,3.7-3.7,3.9-3.8,7.7-7.7,11.6-11.6h0c.3-.3.7-.6.8-1h0c-5.4-5.3-10.7-10.7-16-16h0l-.2-.1h0c-5.3,5.5-10.6,10.8-15.9,16.1Z" transform="translate(-67 -160.09)"/><path class="cls-1" d="M67.5,279.2h48.3v11.6H98.4v45.7a8.88,8.88,0,0,1-.1,2.3H84.9c.1-16,0-32,0-48H67.5Z" transform="translate(-67 -160.09)"/><path class="cls-1" d="M67.5,279.2h48.3v11.6H98.4v46.7a6.15,6.15,0,0,1-.1,1.3H84.9v-48H67.5V279.2h0v11.6H84.9v48H98.4a5.28,5.28,0,0,0,.1-1.3V290.8h17.4V279.2H67.5Z" transform="translate(-67 -160.09)"/><path class="cls-1" d="M156.2,279.2h13.6c0,19.8.1,39.7-.1,59.5H156.2c-.1-5.3,0-10.5-.1-15.8C156.2,308.4,156.1,293.8,156.2,279.2Z" transform="translate(-67 -160.09)"/><path class="cls-1" d="M156.2,279.2h13.6v33.7c0,8.6,0,17.2-.1,25.8H156.2V279.2h0v59.7h13.5c0-8.6.1-17.2.1-25.8V279.4h0c-4.6-.2-9.1-.2-13.6-.2Z" transform="translate(-67 -160.09)"/><path class="cls-1" d="M395.3,279.2h13.6v47.6h23.6v11.9H395.3Z" transform="translate(-67 -160.09)"/><path class="cls-1" d="M395.3,279.2h13.6v47.6h23.6v11.9H395.4V288.4c-.1-3-.1-6.1-.1-9.2h0v59.5h37.2v-12H408.9V279.1h0c-4.5.1-9.1.1-13.6.1Z" transform="translate(-67 -160.09)"/><path class="cls-1" d="M267.8,299.2a25.49,25.49,0,0,0-7.7-12.1c-4.8-4.3-11.2-6.6-17.5-7.5a78.88,78.88,0,0,0-10.9-.4H215.6a2.77,2.77,0,0,0-.9.1c.1,19.7,0,39.3.1,59,0,.1-.1.4-.1.5H238c2.1-.4,4.2-.4,6.3-.8a31.55,31.55,0,0,0,18.4-10.3,28,28,0,0,0,6.2-14.3A37.85,37.85,0,0,0,267.8,299.2ZM252.5,319a16.19,16.19,0,0,1-7.1,6.1,20.13,20.13,0,0,1-8.4,1.8h-9c-.2-3.3,0-6.7-.1-10V290.8h9.3a18.87,18.87,0,0,1,12.8,5,17.55,17.55,0,0,1,5,11.3A19,19,0,0,1,252.5,319Z" transform="translate(-67 -160.09)"/><path class="cls-1" d="M267.8,299.2h0a24.76,24.76,0,0,0-7.7-12.1c-4.9-4.3-11.2-6.6-17.5-7.5a45.3,45.3,0,0,0-7.4-.4H215.6a2.77,2.77,0,0,0-.9.1h0v59h0c0,.1-.1.4-.1.5H238c2.1-.4,4.2-.4,6.3-.8a31.55,31.55,0,0,0,18.4-10.3,28,28,0,0,0,6.2-14.3,38.66,38.66,0,0,0,.3-4.8,36.84,36.84,0,0,0-1.4-9.4h0a32.84,32.84,0,0,1,1.3,9.4,38.66,38.66,0,0,1-.3,4.8,28.33,28.33,0,0,1-6.2,14.3A31.25,31.25,0,0,1,244.2,338c-2.1.5-4.2.4-6.3.8H214.7c0-.1.1-.4.1-.5h0v-59h0a2.77,2.77,0,0,1,.9-.1h19.6a45.91,45.91,0,0,1,7.4.4,32.13,32.13,0,0,1,17.5,7.5,26.08,26.08,0,0,1,7.6,12.1ZM252.5,319h0a16.19,16.19,0,0,1-7.1,6.1,20.13,20.13,0,0,1-8.4,1.8h-9c-.1-1.4-.1-2.7-.1-4.1v-32h9.3a18.87,18.87,0,0,1,12.8,5,17.55,17.55,0,0,1,5,11.3c0,.5.1,1.1.1,1.6a18.63,18.63,0,0,1-2.6,10.3h0a19.5,19.5,0,0,0,2.7-10.2,8.6,8.6,0,0,0-.1-1.6,17.78,17.78,0,0,0-5-11.3,18.87,18.87,0,0,0-12.8-5H228v32c0,1.4,0,2.7.1,4.1h9a21.82,21.82,0,0,0,8.4-1.8,17.44,17.44,0,0,0,7-6.2Z" transform="translate(-67 -160.09)"/><path class="cls-1" d="M353.5,324.8c-5.7-13.8-11.3-27.6-17.1-41.4-.5-1.4-1.1-2.8-1.7-4.1-4.7-.1-9.3-.1-14,0l-24,57.6a6.19,6.19,0,0,0-.7,1.9h14.4c1.4-4,3-7.9,4.4-11.9,8.2-.1,16.4,0,24.6-.1.4-.1.6.3.7.6,1.4,3.8,2.8,7.5,4.1,11.3h14.9C357.4,334.1,355.4,329.5,353.5,324.8Zm-34.7-8.4c-.1-.5.3-1,.4-1.5,2.7-7.2,5.6-14.3,8.3-21.5a.35.35,0,0,0,.2-.1c2.8,7.5,5.7,15,8.6,22.6v.4C330.4,316.3,324.6,316.3,318.8,316.4Z" transform="translate(-67 -160.09)"/><path class="cls-1" d="M353.5,324.8h0c-5.7-13.8-11.3-27.6-17-41.4-.5-1.4-1.1-2.8-1.7-4.1h0c-2.3,0-4.7-.1-7-.1s-4.7,0-7,.1h0l-24,57.6a6.19,6.19,0,0,0-.7,1.9h14.5c1.4-4,3-7.9,4.4-11.9h0c3.3-.1,6.7-.1,10-.1h14.8c.3,0,.4.4.5.6,1.4,3.8,2.8,7.5,4.1,11.3h14.9c-1.9-4.6-3.9-9.3-5.8-13.9h0c1.9,4.7,3.9,9.3,5.7,14H344.3c-1.4-3.8-2.8-7.5-4.1-11.3-.1-.3-.2-.7-.5-.7H324.9c-3.3,0-6.7,0-10,.1h0c-1.4,4-3,7.9-4.4,11.9H296.1a6.19,6.19,0,0,1,.7-1.9l24-57.6h0c2.3,0,4.7-.1,7-.1s4.7,0,7,.1h0c.6,1.3,1.2,2.7,1.7,4.1,5.7,13.8,11.3,27.6,17,41.4Zm-34.7-8.4h0v-.2a5,5,0,0,1,.4-1.3h0c2.7-7.2,5.6-14.3,8.3-21.5h.2c2.8,7.5,5.7,15,8.6,22.6h0v.4h-8.7c-3-.1-5.9-.1-8.8,0h17.4V316h0c-2.9-7.5-5.8-15-8.6-22.6h0c-.1,0-.2,0-.2.1h0c-2.7,7.2-5.5,14.3-8.3,21.5h0a5,5,0,0,0-.4,1.3l.1.1Z" transform="translate(-67 -160.09)"/></svg>